<svg width="151" height="48" viewBox="0 0 151 48" fill="none" xmlns="http://www.w3.org/2000/svg">
<path d="M75.9545 24.1441L77.5326 24.2077L75.9545 24.1441ZM85.2994 1.76906L84.9354 3.30597L85.2994 1.76906ZM91.4854 24.1441L89.9083 24.2286L89.9083 24.2299L91.4854 24.1441ZM106.182 27.6777L107.157 28.9207L106.182 27.6777ZM133.576 25.1903C133.576 29.8426 137.348 33.6139 142 33.6139C146.652 33.6139 150.424 29.8426 150.424 25.1903C150.424 20.5381 146.652 16.7668 142 16.7668C137.348 16.7668 133.576 20.5381 133.576 25.1903ZM51.4977 42.8835C59.4646 45.556 65.9278 45.3145 70.5046 41.8587C75.04 38.4341 77.2096 32.2285 77.5326 24.2077L74.3764 24.0806C74.0676 31.7486 72.01 36.7637 68.6011 39.3378C65.2336 41.8805 60.0354 42.4156 52.5023 39.8887L51.4977 42.8835ZM77.5326 24.2077C77.9268 14.4183 79.0432 8.83295 80.5107 5.87076C81.2269 4.42513 81.9569 3.74883 82.5897 3.43847C83.21 3.13427 83.9562 3.07405 84.9354 3.30597L85.6634 0.232161C84.2058 -0.113046 82.6642 -0.116323 81.1988 0.602357C79.7459 1.31488 78.5923 2.62741 77.6802 4.46845C75.8912 8.07958 74.7719 14.2589 74.3764 24.0806L77.5326 24.2077ZM84.9354 3.30597C85.4947 3.43843 86.1929 3.99575 86.9059 5.43105C87.5965 6.82137 88.1437 8.72902 88.569 10.9357C89.4172 15.3365 89.7099 20.5264 89.9083 24.2286L93.0626 24.0597C92.8661 20.3912 92.5666 14.9859 91.6708 10.3379C91.2241 8.02024 90.6114 5.79015 89.7349 4.02575C88.8808 2.30633 87.6048 0.691959 85.6634 0.232161L84.9354 3.30597ZM89.9083 24.2299C90.0492 26.8191 90.0836 29.4737 90.1438 32.0499C90.2033 34.6003 90.2883 37.0807 90.5386 39.2213C90.7836 41.3167 91.2079 43.3102 92.0788 44.7544C92.5308 45.5038 93.1424 46.1724 93.9724 46.598C94.8152 47.0303 95.7509 47.144 96.7227 46.9973L96.2512 43.8739C95.8278 43.9378 95.5786 43.8718 95.4139 43.7873C95.2364 43.6962 95.0178 43.5111 94.7838 43.1231C94.2829 42.2924 93.9125 40.8765 93.6761 38.8544C93.4449 36.8775 93.3615 34.5325 93.3017 31.9761C93.2426 29.4455 93.2069 26.7119 93.0625 24.0584L89.9083 24.2299ZM96.7227 46.9973C98.8017 46.6835 100.036 45.3239 100.812 43.7591C101.547 42.2763 101.983 40.3828 102.405 38.6129C103.3 34.8541 104.246 31.2025 107.157 28.9207L105.208 26.4348C101.295 29.5024 100.183 34.3086 99.3321 37.8808C98.8805 39.7764 98.5215 41.2666 97.9814 42.3566C97.4819 43.3646 96.9624 43.7665 96.2512 43.8739L96.7227 46.9973ZM107.157 28.9207C108 28.259 109.569 27.6942 111.942 27.2979C114.259 26.9106 117.123 26.7168 120.359 26.6361C126.877 26.4734 134.524 26.7698 142 26.7698V23.6109C134.735 23.6109 126.815 23.3151 120.28 23.4782C116.99 23.5603 113.955 23.7589 111.421 24.1822C108.942 24.5964 106.705 25.2605 105.208 26.4348L107.157 28.9207ZM52.5023 39.8887C44.9704 37.3622 32.3861 29.9032 21.5393 22.956C16.1494 19.5038 11.2406 16.2125 7.67885 13.7838C5.8983 12.5697 4.45517 11.5718 3.45778 10.8777C2.9591 10.5307 2.5719 10.2598 2.30972 10.0758C2.17863 9.98378 2.0788 9.91354 2.01193 9.86643C1.97849 9.84287 1.95329 9.8251 1.93654 9.81328C1.92816 9.80737 1.9219 9.80294 1.91778 9.80003C1.91572 9.79857 1.91419 9.7975 1.9132 9.7968C1.91271 9.79645 1.91237 9.79621 1.91212 9.79603C1.91192 9.79589 1.91185 9.79584 1 11.0854C0.0881461 12.3751 0.0883498 12.3752 0.0886884 12.3754C0.0889816 12.3756 0.0894555 12.376 0.0900412 12.3764C0.0912127 12.3772 0.0929229 12.3784 0.0951684 12.38C0.0996595 12.3832 0.106292 12.3879 0.11504 12.394C0.132535 12.4064 0.158491 12.4247 0.192695 12.4488C0.261103 12.497 0.362507 12.5683 0.495213 12.6615C0.760621 12.8477 1.15125 13.1211 1.65355 13.4706C2.65811 14.1696 4.10951 15.1733 5.89927 16.3937C9.47814 18.834 14.4131 22.143 19.8357 25.616C30.6139 32.5194 43.5296 40.2107 51.4977 42.8835L52.5023 39.8887Z" fill="white"/>
</svg>
