<svg width="222" height="95" viewBox="0 0 222 95" fill="none" xmlns="http://www.w3.org/2000/svg">
<path d="M7.96748 44.692C6.09916 43.0531 3.25599 43.2391 1.6171 45.1074C-0.0218001 46.9757 0.16419 49.8189 2.03252 51.4578L7.96748 44.692ZM138.382 42.0644L140.776 45.875L138.382 42.0644ZM53.5026 66.1063L56.6798 69.293L56.6798 69.293L53.5026 66.1063ZM113.12 89.1463L113.963 93.5667L113.12 89.1463ZM174 48.0749C174 61.3297 184.745 72.0749 198 72.0749C211.255 72.0749 222 61.3297 222 48.0749C222 34.8201 211.255 24.0749 198 24.0749C184.745 24.0749 174 34.8201 174 48.0749ZM5 48.0749C2.03252 51.4578 2.0333 51.4585 2.03422 51.4593C2.0347 51.4597 2.03576 51.4606 2.03673 51.4615C2.03868 51.4632 2.04116 51.4654 2.04419 51.468C2.05024 51.4733 2.05843 51.4805 2.06875 51.4895C2.08939 51.5075 2.11852 51.5328 2.15592 51.5652C2.23071 51.63 2.33861 51.723 2.47783 51.8419C2.75624 52.0798 3.16021 52.4216 3.67557 52.8489C4.70573 53.7029 6.18411 54.9009 7.99698 56.2942C11.6102 59.0711 16.6097 62.6681 22.0737 65.8651C27.4796 69.028 33.6245 71.9698 39.4847 73.1953C45.3111 74.4138 51.855 74.1034 56.6798 69.293L50.3254 62.9195C48.6101 64.6297 45.8211 65.3257 41.327 64.3859C36.8667 63.4532 31.7035 61.0721 26.6188 58.097C21.5922 55.156 16.9186 51.7999 13.4813 49.1582C11.7689 47.8422 10.3777 46.7146 9.41964 45.9203C8.94087 45.5234 8.57104 45.2103 8.32417 44.9994C8.20077 44.894 8.10816 44.8141 8.04811 44.7621C8.01808 44.7361 7.99621 44.7171 7.98269 44.7053C7.97594 44.6994 7.97127 44.6953 7.96873 44.6931C7.96746 44.692 7.96672 44.6913 7.96651 44.6911C7.9664 44.691 7.96665 44.6913 7.96659 44.6912C7.96697 44.6915 7.96748 44.692 5 48.0749ZM56.6798 69.293C62.3544 63.6354 64.2569 56.2763 64.8386 49.2125C65.4059 42.3243 64.7473 34.6478 64.6195 28.6001C64.481 22.0475 64.9455 17.3426 66.7656 14.2693C68.2411 11.7781 71.1703 9.5 78.7644 9.5V0.5C69.1699 0.5 62.6399 3.57419 59.0219 9.68295C55.7487 15.2096 55.4855 22.3522 55.6215 28.7902C55.7683 35.7331 56.3865 42.1901 55.869 48.4738C55.3659 54.582 53.8222 59.4332 50.3254 62.9195L56.6798 69.293ZM78.7644 9.5C82.3104 9.5 83.9792 10.5761 84.9727 11.8395C86.1621 13.3521 87.0027 15.9239 87.2468 19.9374C87.7419 28.0795 85.7109 38.8762 84.1055 50.5012C83.327 56.1386 82.6746 61.8817 82.6195 67.214C82.5649 72.5038 83.0884 77.7479 84.9068 82.237C86.789 86.8837 90.0684 90.712 95.2319 92.7987C100.213 94.8117 106.446 94.9998 113.963 93.5667L112.278 84.7259C105.655 85.9886 101.362 85.5689 98.6042 84.4544C96.0289 83.4136 94.3569 81.5946 93.2484 78.8581C92.0761 75.9638 91.5696 72.0887 91.6191 67.307C91.668 62.5678 92.2538 57.2871 93.0209 51.7324C94.5068 40.9729 96.797 28.7112 96.2302 19.3911C95.9433 14.6734 94.9071 9.91306 92.0474 6.27635C88.9917 2.39047 84.439 0.5 78.7644 0.5V9.5ZM113.963 93.5667C124.199 91.6154 130.788 88.2947 134.259 83.1186C137.747 77.9168 137.248 72.034 136.517 67.3995C136.327 66.2 136.105 64.9952 135.896 63.8584C135.683 62.7006 135.483 61.6041 135.316 60.521C134.98 58.3427 134.814 56.4289 134.949 54.688C135.188 51.58 136.376 48.6389 140.776 45.875L135.988 38.2539C129.111 42.574 126.429 48.1209 125.975 53.9952C125.763 56.7453 126.044 59.4461 126.421 61.8922C126.611 63.1213 126.834 64.3394 127.044 65.4845C127.258 66.6506 127.459 67.7368 127.627 68.8024C128.325 73.2283 128.203 75.9899 126.784 78.1065C125.347 80.2489 121.746 82.9207 112.278 84.7259L113.963 93.5667ZM140.776 45.875C152.249 38.668 165.592 39.8162 176.688 43.2091C182.174 44.8865 186.913 47.0574 190.284 48.8148C191.965 49.6909 193.293 50.4574 194.19 50.9973C194.638 51.267 194.977 51.4797 195.197 51.6204C195.308 51.6908 195.388 51.7431 195.438 51.7756C195.463 51.7919 195.48 51.8031 195.489 51.8092C195.494 51.8122 195.496 51.814 195.497 51.8144C195.497 51.8146 195.497 51.8144 195.496 51.814C195.496 51.8137 195.495 51.8131 195.495 51.813C195.494 51.8123 195.493 51.8116 198 48.0749C200.507 44.3383 200.506 44.3373 200.505 44.3363C200.504 44.3358 200.502 44.3347 200.501 44.3338C200.498 44.332 200.495 44.3298 200.491 44.3273C200.484 44.3223 200.474 44.3159 200.462 44.3082C200.439 44.2928 200.408 44.2721 200.369 44.2464C200.29 44.1949 200.179 44.1232 200.038 44.0332C199.756 43.8532 199.351 43.5996 198.833 43.2877C197.798 42.6642 196.308 41.8053 194.444 40.8338C190.726 38.8959 185.467 36.4822 179.319 34.6024C167.148 30.8808 150.682 29.0237 135.988 38.2539L140.776 45.875Z" fill="black"/>
</svg>
