<svg width="40" height="40" viewBox="0 0 40 40" fill="none" xmlns="http://www.w3.org/2000/svg">
<circle cx="20" cy="20" r="20" fill="#F25533"/>
<g clip-path="url(#clip0_45_507)">
<path d="M27.2383 13.8998C27.237 13.6135 27.1227 13.3393 26.9202 13.1368C26.7178 12.9344 26.4436 12.8201 26.1573 12.8188L15.9586 12.8188C15.8134 12.8136 15.6687 12.8378 15.5331 12.8898C15.3974 12.9418 15.2737 13.0207 15.1692 13.1215C15.0646 13.2224 14.9815 13.3433 14.9248 13.4771C14.868 13.6108 14.8387 13.7546 14.8387 13.8998C14.8387 14.0451 14.868 14.1889 14.9248 14.3226C14.9815 14.4563 15.0646 14.5772 15.1692 14.6781C15.2737 14.779 15.3974 14.8578 15.5331 14.9098C15.6687 14.9618 15.8134 14.986 15.9586 14.9809L23.5464 14.9809L13.154 25.3733C12.9511 25.5762 12.8371 25.8513 12.8371 26.1382C12.8371 26.4251 12.9511 26.7002 13.154 26.9031C13.3568 27.106 13.632 27.2199 13.9189 27.2199C14.2058 27.2199 14.4809 27.106 14.6838 26.9031L25.0762 16.5107L25.0762 24.0985C25.0861 24.3786 25.2043 24.6439 25.406 24.8386C25.6076 25.0333 25.877 25.142 26.1573 25.142C26.4375 25.142 26.7069 25.0333 26.9086 24.8386C27.1102 24.6439 27.2284 24.3786 27.2383 24.0985L27.2383 13.8998Z" fill="white"/>
</g>
<defs>
<clipPath id="clip0_45_507">
<rect width="23.0769" height="23.0769" fill="white" transform="translate(8.46155 8.46155)"/>
</clipPath>
</defs>
</svg>
