<svg width="181" height="180" viewBox="0 0 181 180" fill="none" xmlns="http://www.w3.org/2000/svg">
<circle cx="90.5" cy="90" r="89.5" stroke="#71717A"/>
<path d="M71.0451 90.1028C71.0451 98.1966 64.4229 105.003 56.5131 105.003C48.4193 105.003 41.7971 98.1966 41.7971 90.1028C41.7971 82.009 48.4193 75.2029 56.5131 75.2029C64.4229 75.2029 71.0451 82.009 71.0451 90.1028ZM138.003 90.1028C138.003 98.1966 131.381 105.003 123.471 105.003C115.377 105.003 108.755 98.1966 108.755 90.1028C108.755 82.009 115.377 75.2029 123.471 75.2029C131.381 75.2029 138.003 82.009 138.003 90.1028Z" fill="#F25533"/>
<path d="M89.8999 71.248C81.8061 71.248 75 64.6258 75 56.716C75 48.6222 81.8061 42 89.8999 42C97.9937 42 104.8 48.6222 104.8 56.716C104.8 64.6258 97.9937 71.248 89.8999 71.248ZM89.8999 138.206C81.8061 138.206 75 131.583 75 123.674C75 115.58 81.8061 108.958 89.8999 108.958C97.9937 108.958 104.8 115.58 104.8 123.674C104.8 131.583 97.9937 138.206 89.8999 138.206Z" fill="#F25533"/>
</svg>
