<svg width="325" height="217" viewBox="0 0 325 217" fill="none" xmlns="http://www.w3.org/2000/svg">
<g clip-path="url(#clip0_30_951)">
<path fill-rule="evenodd" clip-rule="evenodd" d="M216.915 216.171C276.609 216.171 325 167.779 325 108.085C325 48.3914 276.609 0 216.915 0C197.228 0 178.77 5.26347 162.872 14.46C146.974 5.26357 128.516 0.000152588 108.829 0.000152588C49.1356 0.000152588 0.744202 48.3916 0.744202 108.085C0.744202 167.779 49.1356 216.171 108.829 216.171C128.517 216.171 146.974 210.907 162.872 201.711C178.77 210.907 197.228 216.171 216.915 216.171ZM108.829 108.085C108.829 148.092 130.565 183.022 162.872 201.711C195.179 183.022 216.915 148.092 216.915 108.085C216.915 68.0786 195.179 33.1484 162.872 14.46C130.565 33.1484 108.829 68.0785 108.829 108.085Z" fill="#2D2D2D"/>
</g>
<defs>
<clipPath id="clip0_30_951">
<rect width="324.256" height="216.171" fill="white" transform="translate(0.744202)"/>
</clipPath>
</defs>
</svg>
