<svg width="298" height="142" viewBox="0 0 298 142" fill="none" xmlns="http://www.w3.org/2000/svg">
<path d="M73.3566 72.8454L78.1151 73.0371L73.3566 72.8454ZM101.534 5.37908L100.436 10.0132L101.534 5.37908ZM120.186 72.8454L115.431 73.1002L115.431 73.1041L120.186 72.8454ZM164.5 83.5L167.438 87.2478L164.5 83.5ZM247.101 76C247.101 90.0275 258.472 101.399 272.5 101.399C286.528 101.399 297.899 90.0275 297.899 76C297.899 61.9725 286.528 50.6009 272.5 50.6009C258.472 50.6009 247.101 61.9725 247.101 76ZM0.643401 129.572C12.885 130.824 31.4308 129.633 47.372 121.74C63.6365 113.687 77.0838 98.6474 78.1151 73.0371L68.5981 72.6538C67.7245 94.3492 56.6987 106.494 43.1458 113.205C29.2694 120.075 12.6534 121.226 1.61246 120.097L0.643401 129.572ZM78.1151 73.0371C79.3037 43.5195 82.6697 26.6784 87.0948 17.7467C89.2543 13.3878 91.4553 11.3486 93.3634 10.4128C95.2337 9.49552 97.4837 9.31395 100.436 10.0132L102.631 0.744943C98.2363 -0.29594 93.588 -0.305821 89.1694 1.86117C84.7887 4.00961 81.3103 7.96722 78.5601 13.5184C73.1657 24.4068 69.7907 43.0391 68.5981 72.6538L78.1151 73.0371ZM100.436 10.0132C102.123 10.4126 104.228 12.0931 106.378 16.4209C108.46 20.613 110.11 26.3651 111.392 33.0188C113.95 46.2883 114.833 61.9372 115.431 73.1002L124.942 72.5907C124.349 61.5295 123.446 45.231 120.745 31.2163C119.398 24.2279 117.551 17.5036 114.908 12.1836C112.333 6.99906 108.485 2.13135 102.631 0.744943L100.436 10.0132ZM115.431 73.1041C115.856 80.9112 115.959 88.9153 116.141 96.6832C116.32 104.373 116.576 111.852 117.331 118.307C118.07 124.625 119.349 130.636 121.975 134.99C123.338 137.25 125.182 139.266 127.685 140.549C130.226 141.853 133.048 142.196 135.978 141.753L134.556 132.335C133.279 132.528 132.528 132.329 132.032 132.074C131.496 131.8 130.837 131.241 130.132 130.072C128.621 127.567 127.504 123.298 126.791 117.2C126.094 111.24 125.843 104.169 125.663 96.4608C125.485 88.8303 125.377 80.588 124.942 72.5868L115.431 73.1041ZM135.978 141.753C142.247 140.807 145.969 136.707 148.307 131.989C150.523 127.518 151.84 121.809 153.111 116.472C155.811 105.138 158.663 94.1282 167.438 87.2478L161.562 79.7522C149.764 89.0019 146.412 103.494 143.846 114.265C142.484 119.98 141.402 124.474 139.773 127.76C138.267 130.8 136.701 132.012 134.556 132.335L135.978 141.753ZM167.438 87.2478C169.983 85.2529 174.713 83.5499 181.867 82.3547C188.855 81.187 197.488 80.6027 207.246 80.3591C226.9 79.8687 249.958 80.7623 272.5 80.7623V71.2377C250.594 71.2377 226.712 70.3457 207.008 70.8375C197.087 71.085 187.937 71.6837 180.297 72.9602C172.822 74.2092 166.078 76.2115 161.562 79.7522L167.438 87.2478Z" fill="#F25533"/>
</svg>
