<svg width="60" height="40" viewBox="0 0 60 40" fill="none" xmlns="http://www.w3.org/2000/svg">
<g clip-path="url(#clip0_34_246)">
<path fill-rule="evenodd" clip-rule="evenodd" d="M30 37.3244C35.978 33.8663 40 27.4028 40 20C40 12.5972 35.978 6.13374 30 2.67564C32.9417 0.973943 36.3571 0 40 0C51.0457 0 60 8.9543 60 20C60 31.0457 51.0457 40 40 40C36.3571 40 32.9417 39.0261 30 37.3244ZM30 37.3244C27.0583 39.0261 23.6429 40 20 40C8.9543 40 0 31.0457 0 20C0 8.9543 8.9543 0 20 0C23.6429 0 27.0583 0.973943 30 2.67564C24.022 6.13374 20 12.5972 20 20C20 27.4028 24.022 33.8663 30 37.3244Z" fill="#F25533"/>
</g>
<defs>
<clipPath id="clip0_34_246">
<rect width="60" height="40" fill="white"/>
</clipPath>
</defs>
</svg>
