<svg width="200" height="134" viewBox="0 0 200 134" fill="none" xmlns="http://www.w3.org/2000/svg">
<path fill-rule="evenodd" clip-rule="evenodd" d="M100 124.748C119.927 113.221 133.333 91.6761 133.333 67C133.333 42.3239 119.927 20.7791 100 9.25214C109.806 3.57981 121.19 0.333333 133.333 0.333333C170.152 0.333333 200 30.181 200 67C200 103.819 170.152 133.667 133.333 133.667C121.19 133.667 109.806 130.42 100 124.748ZM100 124.748C90.1942 130.42 78.8096 133.667 66.6667 133.667C29.8477 133.667 0 103.819 0 67C0 30.181 29.8477 0.333313 66.6667 0.333313C78.8096 0.333313 90.1942 3.57979 100 9.25214C80.0733 20.7791 66.6667 42.3239 66.6667 67C66.6667 91.6761 80.0733 113.221 100 124.748Z" fill="#F25533"/>
</svg>
