<svg width="201" height="200" viewBox="0 0 201 200" fill="none" xmlns="http://www.w3.org/2000/svg">
<path d="M36.6646 99.7067L0.25 86.217L11.4545 55.7185L46.1884 68.0352C66.3564 75.0733 77.5609 81.5249 89.3256 89.7361C85.9643 75.0733 84.2836 60.9971 84.2836 40.4692V0H115.656V40.4692C115.656 60.9971 113.415 76.2463 110.614 89.7361C122.379 82.1115 133.583 75.0733 153.191 68.0352L188.485 55.132L200.25 86.217L163.275 99.7067C144.788 106.745 130.222 109.091 117.337 110.85C129.102 121.408 137.505 130.792 148.149 148.387L169.998 181.232L144.228 200L122.379 167.742C110.614 150.147 104.452 136.657 99.4097 124.34C94.9279 138.416 88.7654 151.906 77.5609 167.742L55.152 200L28.8214 181.232L50.6702 148.387C62.4349 130.792 71.9587 120.821 82.6029 110.85C65.7962 108.504 52.9111 106.158 36.6646 99.7067Z" fill="#F25533"/>
</svg>
