<svg width="43" height="40" viewBox="0 0 43 40" fill="none" xmlns="http://www.w3.org/2000/svg">
<path d="M7.89706 19.9413L0.25 17.2434L2.60294 11.1437L9.89706 13.607C14.1324 15.0147 16.4853 16.305 18.9559 17.9472C18.25 15.0147 17.8971 12.1994 17.8971 8.09384V0H24.4853V8.09384C24.4853 12.1994 24.0147 15.2493 23.4265 17.9472C25.8971 16.4223 28.25 15.0147 32.3676 13.607L39.7794 11.0264L42.25 17.2434L34.4853 19.9413C30.6029 21.349 27.5441 21.8182 24.8382 22.1701C27.3088 24.2815 29.0735 26.1584 31.3088 29.6774L35.8971 36.2463L30.4853 40L25.8971 33.5484C23.4265 30.0293 22.1324 27.3314 21.0735 24.868C20.1324 27.6833 18.8382 30.3812 16.4853 33.5484L11.7794 40L6.25 36.2463L10.8382 29.6774C13.3088 26.1584 15.3088 24.1642 17.5441 22.1701C14.0147 21.7009 11.3088 21.2317 7.89706 19.9413Z" fill="#F25533"/>
</svg>
